<svg xmlns="http://www.w3.org/2000/svg" viewBox="0 0 150.5 150"><defs><style>.cls-1{opacity:0.8;}.cls-2{fill:#f15a24;}</style></defs><g id="Capa_2" data-name="Capa 2"><g id="Capa_1-2" data-name="Capa 1"><g class="cls-1"><rect x="2" y="2" width="146.5" height="146" rx="31.12"/><path d="M117.38,4A29.15,29.15,0,0,1,146.5,33.12v83.76A29.15,29.15,0,0,1,117.38,146H33.12A29.15,29.15,0,0,1,4,116.88V33.12A29.15,29.15,0,0,1,33.12,4h84.26m0-4H33.12A33.12,33.12,0,0,0,0,33.12v83.76A33.12,33.12,0,0,0,33.12,150h84.26a33.12,33.12,0,0,0,33.12-33.12V33.12A33.12,33.12,0,0,0,117.38,0Z"/></g><text/><rect class="cls-2" x="58.5" y="33" width="31" height="45"/><polygon class="cls-2" points="44.08 78 106.5 78 75.5 112 44.08 78"/></g></g></svg>